<?xml version="1.0" encoding="UTF-8" ?>
<svg version="1.1" width="32" height="32" xmlns="http://www.w3.org/2000/svg" shape-rendering="crispEdges">
<rect x="8" y="3" width="16" height="9" fill="#10141F" />
<rect x="6" y="4" width="2" height="8" fill="#10141F" />
<rect x="24" y="4" width="2" height="8" fill="#10141F" />
<rect x="3" y="5" width="3" height="6" fill="#10141F" />
<rect x="26" y="5" width="3" height="6" fill="#10141F" />
<rect x="2" y="6" width="1" height="5" fill="#10141F" />
<rect x="29" y="6" width="1" height="5" fill="#10141F" />
<rect x="0" y="7" width="1" height="1" fill="#EBEDE9" />
<rect x="31" y="7" width="1" height="1" fill="#EBEDE9" />
<rect x="0" y="8" width="1" height="3" fill="#E8C170" />
<rect x="1" y="8" width="1" height="1" fill="#EBEDE9" />
<rect x="30" y="8" width="1" height="1" fill="#EBEDE9" />
<rect x="31" y="8" width="1" height="3" fill="#E8C170" />
<rect x="1" y="9" width="1" height="1" fill="#E8C170" />
<rect x="30" y="9" width="1" height="1" fill="#E8C170" />
<rect x="1" y="10" width="1" height="2" fill="#DE9E41" />
<rect x="30" y="10" width="1" height="2" fill="#DE9E41" />
<rect x="2" y="11" width="1" height="1" fill="#DA863E" />
<rect x="3" y="11" width="1" height="10" fill="#10141F" />
<rect x="4" y="11" width="2" height="1" fill="#E8C170" />
<rect x="26" y="11" width="2" height="1" fill="#E8C170" />
<rect x="28" y="11" width="1" height="10" fill="#10141F" />
<rect x="29" y="11" width="1" height="1" fill="#DA863E" />
<rect x="2" y="12" width="1" height="6" fill="#10141F" />
<rect x="4" y="12" width="1" height="14" fill="#10141F" />
<rect x="5" y="12" width="1" height="1" fill="#DE9E41" />
<rect x="6" y="12" width="3" height="1" fill="#E8C170" />
<rect x="9" y="12" width="14" height="1" fill="#10141F" />
<rect x="23" y="12" width="3" height="1" fill="#E8C170" />
<rect x="26" y="12" width="1" height="1" fill="#DE9E41" />
<rect x="27" y="12" width="1" height="14" fill="#10141F" />
<rect x="29" y="12" width="1" height="6" fill="#10141F" />
<rect x="5" y="13" width="2" height="4" fill="#10141F" />
<rect x="7" y="13" width="1" height="1" fill="#DE9E41" />
<rect x="8" y="13" width="3" height="1" fill="#E8C170" />
<rect x="11" y="13" width="10" height="1" fill="#10141F" />
<rect x="21" y="13" width="3" height="1" fill="#E8C170" />
<rect x="24" y="13" width="1" height="1" fill="#DE9E41" />
<rect x="25" y="13" width="2" height="4" fill="#10141F" />
<rect x="7" y="14" width="2" height="6" fill="#10141F" />
<rect x="9" y="14" width="1" height="1" fill="#DA863E" />
<rect x="10" y="14" width="4" height="1" fill="#E8C170" />
<rect x="14" y="14" width="4" height="1" fill="#10141F" />
<rect x="18" y="14" width="4" height="1" fill="#E8C170" />
<rect x="22" y="14" width="1" height="1" fill="#DA863E" />
<rect x="23" y="14" width="2" height="6" fill="#10141F" />
<rect x="9" y="15" width="2" height="14" fill="#10141F" />
<rect x="11" y="15" width="1" height="1" fill="#DA863E" />
<rect x="12" y="15" width="8" height="1" fill="#E8C170" />
<rect x="20" y="15" width="1" height="1" fill="#DA863E" />
<rect x="21" y="15" width="2" height="14" fill="#10141F" />
<rect x="11" y="16" width="2" height="4" fill="#10141F" />
<rect x="13" y="16" width="6" height="1" fill="#DA863E" />
<rect x="19" y="16" width="2" height="4" fill="#10141F" />
<rect x="5" y="17" width="1" height="11" fill="#10141F" />
<rect x="6" y="17" width="1" height="3" fill="#DA863E" />
<rect x="13" y="17" width="2" height="6" fill="#10141F" />
<rect x="15" y="17" width="2" height="1" fill="#DA863E" />
<rect x="17" y="17" width="2" height="6" fill="#10141F" />
<rect x="25" y="17" width="1" height="3" fill="#DA863E" />
<rect x="26" y="17" width="1" height="11" fill="#10141F" />
<rect x="15" y="18" width="2" height="12" fill="#10141F" />
<rect x="6" y="20" width="1" height="8" fill="#10141F" />
<rect x="7" y="20" width="1" height="2" fill="#CF573C" />
<rect x="8" y="20" width="1" height="9" fill="#10141F" />
<rect x="11" y="20" width="1" height="10" fill="#10141F" />
<rect x="12" y="20" width="1" height="3" fill="#DA863E" />
<rect x="19" y="20" width="1" height="3" fill="#DA863E" />
<rect x="20" y="20" width="1" height="10" fill="#10141F" />
<rect x="23" y="20" width="1" height="9" fill="#10141F" />
<rect x="24" y="20" width="1" height="2" fill="#CF573C" />
<rect x="25" y="20" width="1" height="8" fill="#10141F" />
<rect x="7" y="22" width="1" height="2" fill="#A53030" />
<rect x="24" y="22" width="1" height="2" fill="#A53030" />
<rect x="12" y="23" width="1" height="7" fill="#10141F" />
<rect x="13" y="23" width="1" height="2" fill="#CF573C" />
<rect x="14" y="23" width="1" height="7" fill="#10141F" />
<rect x="17" y="23" width="1" height="7" fill="#10141F" />
<rect x="18" y="23" width="1" height="2" fill="#CF573C" />
<rect x="19" y="23" width="1" height="7" fill="#10141F" />
<rect x="7" y="24" width="1" height="5" fill="#10141F" />
<rect x="24" y="24" width="1" height="5" fill="#10141F" />
<rect x="13" y="25" width="1" height="2" fill="#A53030" />
<rect x="18" y="25" width="1" height="2" fill="#A53030" />
<rect x="13" y="27" width="1" height="3" fill="#10141F" />
<rect x="18" y="27" width="1" height="3" fill="#10141F" />
</svg>